<svg role="img" viewBox="0 0 24 24" xmlns="http://www.w3.org/2000/svg" fill="#777BB4"><title>PHP</title><path d="M12.307 13.3c.433 0 .762-.128.988-.383c.225-.256.338-.616.338-1.082c0-.422-.12-.76-.358-1.014c-.238-.255-.589-.382-1.054-.382h-1.22l-.766 2.862h2.072zm6.205 0c.433 0 .762-.128.988-.383c.226-.256.338-.616.338-1.082c0-.422-.119-.76-.357-1.014c-.238-.255-.59-.382-1.055-.382h-1.22l-.765 2.862h2.071zM24 12c0 3.974-5.373 7.2-12 7.2S0 15.974 0 12s5.373-7.2 12-7.2S24 8.026 24 12zM7.135 15.222l.534-1.999h2.155c.983 0 1.73-.265 2.242-.796c.512-.53.767-1.343.767-2.438 0-.521-.147-.935-.441-1.242c-.443-.306-1.05-.459-1.821-.459H6.182l-1.341 5.019h2.294v1.204zm6.265-1.999h2.261l.534-1.999h2.155c.983 0 1.73-.265 2.242-.796c.512-.53.766-1.343.766-2.438c0-.521-.147-.935-.441-1.242c-.443-.306-1.051-.459-1.822-.459h-4.062l-1.34 5.019h2.294v1.204l-1.089 4.072h2.295l.534-1.999zM2.511 15.222l1.625-6.082h2.294l-1.625 6.082H2.511z"/></svg>
